<svg width="30" height="30" viewBox="0 0 30 30" fill="none" xmlns="http://www.w3.org/2000/svg">
<path d="M18.1812 4.38125H16.1938V7.2287L16.8286 6.80556L18.1812 4.38125ZM18.1812 4.38125V7.2287L17.5464 6.80556C17.4377 6.73301 17.3125 6.69688 17.1875 6.69688C17.0625 6.69688 16.9374 6.73299 16.8287 6.80552L18.1812 4.38125ZM21.3049 18.6411L21.305 18.6411C21.524 18.5315 21.6625 18.3076 21.6625 18.0625V12.3656H25.2906V23.4312H12.3656V12.3656H15.9937V18.0625C15.9937 18.3076 16.1322 18.5315 16.3513 18.6411C16.5704 18.7508 16.8327 18.727 17.0287 18.58L18.8281 17.2305L20.6275 18.58C20.8238 18.7273 21.0861 18.7505 21.3049 18.6411ZM18.44 15.9044L17.2875 16.7688V12.3656H20.3687V16.7688L19.2162 15.9044L19.2162 15.9044C19.1013 15.8182 18.9646 15.775 18.8281 15.775C18.6917 15.775 18.555 15.8182 18.44 15.9044L18.44 15.9044ZM19.475 4.38125H22.0094V11.0719H22.0029H21.9851H21.9673H21.9494H21.9315H21.9137H21.8958H21.8778H21.8599H21.8419H21.824H21.806H21.788H21.7699H21.7519H21.7338H21.7158H21.6977H21.6795H21.6614H21.6433H21.6251H21.6069H21.5887H21.5705H21.5523H21.534H21.5158H21.4975H21.4792H21.4609H21.4426H21.4242H21.4059H21.3875H21.3691H21.3507H21.3323H21.3138H21.2954H21.2769H21.2584H21.2399H21.2214H21.2028H21.1843H21.1657H21.1472H21.1286H21.11H21.0913H21.0727H21.0541H21.0354H21.0167H20.998H20.9793H20.9606H20.9419H20.9231H20.9043H20.8856H20.8668H20.848H20.8291H20.8103H20.7915H20.7726H20.7537H20.7348H20.7159H20.697H20.6781H20.6592H20.6402H20.6212H20.6023H20.5833H20.5643H20.5453H20.5262H20.5072H20.4881H20.4691H20.45H20.4309H20.4118H20.3927H20.3736H20.3544H20.3353H20.3161H20.297H20.2778H20.2586H20.2394H20.2202H20.2009H20.1817H20.1624H20.1432H20.1239H20.1046H20.0853H20.066H20.0467H20.0274H20.008H19.9887H19.9693H19.95H19.9306H19.9112H19.8918H19.8724H19.853H19.8336H19.8141H19.7947H19.7752H19.7558H19.7363H19.7168H19.6973H19.6778H19.6583H19.6388H19.6193H19.5997H19.5802H19.5606H19.5411H19.5215H19.5019H19.4823H19.4627H19.4431H19.4235H19.4039H19.3842H19.3646H19.345H19.3253H19.3057H19.286H19.2663H19.2466H19.2269H19.2072H19.1875H19.1678H19.1481H19.1284H19.1086H19.0889H19.0692H19.0494H19.0296H19.0099H18.9901H18.9703H18.9505H18.9307H18.9109H18.8911H18.8713H18.8515H18.8317H18.8118H18.792H18.7722H18.7523H18.7325H18.7126H18.6928H18.6729H18.653H18.6331H18.6133H18.5934H18.5735H18.5536H18.5337H18.5138H18.4939H18.4739H18.454H18.4341H18.4142H18.3942H18.3743H18.3543H18.3344H18.3145H18.2945H18.2745H18.2546H18.2346H18.2146H18.1947H18.1747H18.1547H18.1347H18.1148H18.0948H18.0748H18.0548H18.0348H18.0148H17.9948H17.9748H17.9548H17.9348H17.9147H17.8947H17.8747H17.8547H17.8347H17.8146H17.7946H17.7746H17.7546H17.7345H17.7145H17.6945H17.6744H17.6544H17.6343H17.6143H17.5943H17.5742H17.5542H17.5341H17.5141H17.494H17.474H17.4539H17.4339H17.4138H17.3938H17.3737H17.3537H17.3336H17.3136H17.2935H17.2735H17.2534H17.2334H17.2133H17.1933H17.1732H17.1532H17.1331H17.1131H17.093H17.073H17.053H17.0329H17.0129H16.9928H16.9728H16.9527H16.9327H16.9127H16.8926H16.8726H16.8526H16.8325H16.8125H16.7925H16.7724H16.7524H16.7324H16.7124H16.6923H16.6723H16.6523H16.6323H16.6123H16.5923H16.5723H16.5523H16.5323H16.5123H16.4923H16.4723H16.4523H16.4323H16.4124H16.3924H16.3724H16.3524H16.3325H16.3125H16.2925H16.2726H16.2526H16.2327H16.2127H16.1928H16.1729H16.1529H16.133H16.1131H16.0932H16.0733H16.0533H16.0334H16.0135H15.9936H15.9738H15.9539H15.934H15.9141H15.8942H15.8744H15.8545H15.8347H15.8148H15.795H15.7751H15.7553H15.7355H15.7157H15.6958H15.676H15.6562H15.6364H15.6167H15.5969H15.5771H15.5573H15.5376H15.5178H15.4981H15.4783H15.4586H15.4388H15.4191H15.3994H15.3797H15.36H15.3403H15.3206H15.3009H15.2813H15.2616H15.2419H15.2223H15.2026H15.183H15.1634H15.1438H15.1242H15.1046H15.085H15.0654H15.0458H15.0262H15.0067H14.9871H14.9676H14.9481H14.9285H14.909H14.8895H14.87H14.8505H14.8311H14.8116H14.7921H14.7727H14.7532H14.7338H14.7144H14.695H14.6756H14.6562H14.6368H14.6174H14.5981H14.5787H14.5594H14.54H14.5207H14.5014H14.4821H14.4628H14.4436H14.4243H14.405H14.3858H14.3666H14.3473H14.3281H14.3089H14.2897H14.2706H14.2514H14.2322H14.2131H14.194H14.1748H14.1557H14.1366H14.1176H14.0985H14.0794H14.0604H14.0414H14.0223H14.0033H13.9843H13.9653H13.9464H13.9274H13.9085H13.8895H13.8706H13.8517H13.8328H13.8139H13.7951H13.7762H13.7574H13.7386H13.7197H13.701H13.6822H13.6634H13.6446H13.6259H13.6072H13.5885H13.5698H13.5511H13.5324H13.5137H13.4951H13.4765H13.4579H13.4393H13.4207H13.4021H13.3835H13.365H13.3465H13.328H13.3095H13.291H13.2725H13.2541H13.2357H13.2173H13.1989H13.1805H13.1621H13.1437H13.1254H13.1071H13.0888H13.0705H13.0522H13.034H13.0157H12.9975H12.9793H12.9611H12.9429H12.9248H12.9067H12.8885H12.8704H12.8523H12.8343H12.8162H12.7982H12.7802H12.7622H12.7442H12.7262H12.7083H12.6904H12.6724H12.6546H12.6367H12.6188H12.601H12.5832H12.5654H12.5476H12.5298H12.5121H12.4943H12.4766H12.4589H12.4413H12.4236H12.406H12.3884H12.3708H12.3656V4.38125H14.9V8.4375C14.9 8.67609 15.0314 8.89513 15.2416 9.00778L15.2416 9.00781C15.4521 9.12053 15.7074 9.10786 15.9057 8.97574L15.9057 8.97572L17.1875 8.12125L18.4693 8.97572C18.6679 9.10812 18.9233 9.12027 19.1333 9.00783C19.3436 8.89536 19.475 8.67603 19.475 8.4375V4.38125ZM27.3594 23.4312H26.5844V11.7188C26.5844 11.3615 26.2948 11.0719 25.9375 11.0719H23.3031V3.73438C23.3031 3.37708 23.0135 3.0875 22.6562 3.0875H22.6427H22.6291H22.6153H22.6015H22.5876H22.5735H22.5594H22.5452H22.5309H22.5165H22.502H22.4874H22.4728H22.458H22.4432H22.4282H22.4132H22.3981H22.3829H22.3676H22.3522H22.3367H22.3211H22.3055H22.2898H22.2739H22.258H22.242H22.2259H22.2098H22.1935H22.1772H22.1608H22.1443H22.1277H22.111H22.0943H22.0775H22.0606H22.0436H22.0265H22.0093H21.9921H21.9748H21.9574H21.9399H21.9224H21.9048H21.8871H21.8693H21.8514H21.8335H21.8155H21.7974H21.7792H21.761H21.7427H21.7243H21.7058H21.6873H21.6687H21.65H21.6313H21.6125H21.5936H21.5746H21.5556H21.5365H21.5173H21.498H21.4787H21.4593H21.4399H21.4204H21.4008H21.3811H21.3614H21.3416H21.3218H21.3019H21.2819H21.2618H21.2417H21.2215H21.2013H21.181H21.1606H21.1402H21.1197H21.0991H21.0785H21.0578H21.0371H21.0163H20.9954H20.9745H20.9536H20.9325H20.9114H20.8903H20.8691H20.8478H20.8265H20.8051H20.7836H20.7621H20.7406H20.719H20.6973H20.6756H20.6539H20.632H20.6102H20.5882H20.5663H20.5442H20.5221H20.5H20.4778H20.4556H20.4333H20.411H20.3886H20.3662H20.3437H20.3211H20.2986H20.2759H20.2533H20.2306H20.2078H20.185H20.1621H20.1392H20.1163H20.0933H20.0703H20.0472H20.0241H20.0009H19.9777H19.9544H19.9311H19.9078H19.8844H19.861H19.8376H19.8141H19.7906H19.767H19.7434H19.7197H19.696H19.6723H19.6486H19.6248H19.6009H19.5771H19.5532H19.5292H19.5052H19.4812H19.4572H19.4331H19.409H19.3849H19.3607H19.3365H19.3122H19.288H19.2637H19.2393H19.215H19.1906H19.1662H19.1417H19.1172H19.0927H19.0682H19.0436H19.019H18.9944H18.9698H18.9451H18.9204H18.8957H18.871H18.8462H18.8214H18.7966H18.7717H18.7469H18.722H18.6971H18.6722H18.6472H18.6222H18.5972H18.5722H18.5472H18.5221H18.4971H18.472H18.4469H18.4217H18.3966H18.3714H18.3463H18.3211H18.2959H18.2706H18.2454H18.2201H18.1949H18.1696H18.1443H18.119H18.0936H18.0683H18.043H18.0176H17.9922H17.9668H17.9414H17.916H17.8906H17.8652H17.8398H17.8143H17.7889H17.7634H17.7379H17.7125H17.687H17.6615H17.636H17.6105H17.585H17.5595H17.534H17.5084H17.4829H17.4574H17.4319H17.4063H17.3808H17.3553H17.3297H17.3042H17.2787H17.2531H17.2276H17.202H17.1765H17.151H17.1254H17.0999H17.0743H17.0488H17.0233H16.9978H16.9722H16.9467H16.9212H16.8957H16.8702H16.8447H16.8192H16.7938H16.7683H16.7428H16.7174H16.6919H16.6665H16.641H16.6156H16.5902H16.5648H16.5394H16.514H16.4886H16.4633H16.4379H16.4126H16.3872H16.3619H16.3366H16.3113H16.2861H16.2608H16.2356H16.2103H16.1851H16.1599H16.1347H16.1096H16.0844H16.0593H16.0342H16.0091H15.984H15.959H15.9339H15.9089H15.8839H15.859H15.834H15.8091H15.7842H15.7593H15.7344H15.7096H15.6848H15.66H15.6352H15.6104H15.5857H15.561H15.5364H15.5117H15.4871H15.4625H15.4379H15.4134H15.3889H15.3644H15.34H15.3155H15.2911H15.2668H15.2424H15.2181H15.1939H15.1696H15.1454H15.1212H15.0971H15.073H15.0489H15.0249H15.0008H14.9769H14.9529H14.929H14.9051H14.8813H14.8575H14.8337H14.81H14.7863H14.7627H14.7391H14.7155H14.692H14.6685H14.645H14.6216H14.5982H14.5749H14.5516H14.5283H14.5051H14.482H14.4588H14.4358H14.4127H14.3897H14.3668H14.3439H14.321H14.2982H14.2754H14.2527H14.23H14.2074H14.1848H14.1623H14.1398H14.1174H14.095H14.0726H14.0504H14.0281H14.0059H13.9838H13.9617H13.9397H13.9177H13.8958H13.8739H13.8521H13.8303H13.8086H13.7869H13.7653H13.7437H13.7222H13.7008H13.6794H13.6581H13.6368H13.6156H13.5944H13.5733H13.5523H13.5313H13.5104H13.4895H13.4687H13.448H13.4273H13.4067H13.3861H13.3656H13.3452H13.3248H13.3045H13.2842H13.2641H13.2439H13.2239H13.2039H13.184H13.1641H13.1443H13.1246H13.1049H13.0854H13.0658H13.0464H13.027H13.0077H12.9884H12.9692H12.9501H12.9311H12.9121H12.8932H12.8744H12.8556H12.8369H12.8183H12.7998H12.7813H12.7629H12.7446H12.7264H12.7082H12.6901H12.6721H12.6542H12.6363H12.6185H12.6008H12.5832H12.5656H12.5482H12.5308H12.5134H12.4962H12.479H12.462H12.445H12.428H12.4112H12.3945H12.3778H12.3612H12.3447H12.3283H12.3119H12.2957H12.2795H12.2634H12.2474H12.2315H12.2157H12.1999H12.1843H12.1687H12.1532H12.1378H12.1225H12.1073H12.0922H12.0771H12.0622H12.0473H12.0326H12.0179H12.0033H11.9888H11.9744H11.9601H11.9459H11.9317H11.9177H11.9038H11.8899H11.8762H11.8625H11.849H11.8355H11.8222H11.8089H11.7957H11.7826H11.7697H11.7568H11.744H11.7313H11.7188C11.3615 3.0875 11.0719 3.37708 11.0719 3.73438V23.4312H10.8657C10.4837 22.6556 9.86019 22.0321 9.08438 21.6499V2.64062C9.08438 1.6807 8.30367 0.9 7.34375 0.9H2.64062C1.6807 0.9 0.9 1.6807 0.9 2.64062C0.9 3.60055 1.6807 4.38125 2.64062 4.38125H5.60313V21.65C4.2781 22.3057 3.41563 23.6674 3.41563 25.1719C3.41563 27.3379 5.17771 29.1 7.34375 29.1C8.84825 29.1 10.2099 28.2375 10.8656 26.9125H27.3594C28.3193 26.9125 29.1 26.1318 29.1 25.1719C29.1 24.212 28.3193 23.4312 27.3594 23.4312ZM2.64062 3.0875C2.39422 3.0875 2.19375 2.88703 2.19375 2.64062C2.19375 2.39422 2.39422 2.19375 2.64062 2.19375H7.34375C7.59016 2.19375 7.79063 2.39422 7.79063 2.64062V21.2695C7.64304 21.2526 7.494 21.2437 7.34375 21.2437C7.1935 21.2437 7.04446 21.2526 6.89687 21.2695V3.73438C6.89687 3.37708 6.60729 3.0875 6.25 3.0875H2.64062ZM7.34375 27.8062C5.89123 27.8062 4.70937 26.6244 4.70937 25.1719C4.70937 23.7347 5.87201 22.5375 7.34375 22.5375C8.81504 22.5375 9.97812 23.736 9.97812 25.1719C9.97812 26.6436 8.7809 27.8062 7.34375 27.8062ZM27.3594 25.6187H11.2461C11.263 25.4712 11.2719 25.3221 11.2719 25.1719C11.2719 25.0216 11.2629 24.8725 11.246 24.725H27.3594C27.6058 24.725 27.8062 24.9255 27.8062 25.1719C27.8062 25.4183 27.6058 25.6187 27.3594 25.6187Z" fill="#3675B4" stroke="#3675B4" stroke-width="0.2"/>
</svg>
