<svg width="36" height="21" viewBox="0 0 36 21" fill="none" xmlns="http://www.w3.org/2000/svg">
<path d="M30.8366 5.94923L30.8368 5.94954L33.1087 9.92236H34.4333C34.8016 9.92236 35.1 10.2213 35.1 10.5898V16.9452C35.1 17.3137 34.8016 17.6126 34.4333 17.6126H32.8604C32.4988 19.2803 30.8728 20.3647 29.1885 20.0438C27.9436 19.8066 26.9641 18.8473 26.696 17.6126H25.123V17.6127L25.1203 17.6126C25.0349 17.6103 24.9508 17.5916 24.8726 17.5576C24.7596 17.5926 24.642 17.6112 24.5236 17.6126H24.5223H17.192C16.8305 19.2803 15.2045 20.3647 13.5202 20.0438C12.2752 19.8066 11.2958 18.8473 11.0276 17.6126H7.60733C6.90413 17.6126 6.33433 17.0418 6.33433 16.338V11.2573H2.77367C2.40537 11.2573 2.107 10.9583 2.107 10.5898C2.107 10.2213 2.40537 9.92236 2.77367 9.92236H6.33433V8.1817H5.794C5.4257 8.1817 5.12733 7.88273 5.12733 7.51426C5.12733 7.14579 5.4257 6.84682 5.794 6.84682H6.33433V5.11183H1.56667C1.19837 5.11183 0.900002 4.81286 0.900002 4.44439C0.900002 4.07592 1.19837 3.77694 1.56667 3.77694H6.33433V2.17461C6.33433 1.47078 6.90413 0.9 7.60733 0.9H24.5167C25.2199 0.9 25.7897 1.47078 25.7897 2.17461V5.61546L30.2566 5.61546L30.257 5.71546V5.61546H30.2567C30.4959 5.61459 30.7171 5.74196 30.8366 5.94923ZM7.662 3.79964H10.2707C10.639 3.79964 10.9373 4.09861 10.9373 4.46708C10.9373 4.83555 10.639 5.13453 10.2707 5.13453H7.67333V6.85249H14.5037C14.872 6.85249 15.1703 7.15146 15.1703 7.51993C15.1703 7.8884 14.872 8.18738 14.5037 8.18738H7.68467V9.92804H11.4833H11.4835C11.8518 9.92854 12.1497 10.2279 12.1492 10.5964C12.1487 10.9642 11.8511 11.2624 11.4835 11.2629H11.4833H7.696V16.2777H11.022C11.3836 14.6101 13.0095 13.5257 14.6938 13.8466C15.9387 14.0838 16.918 15.0429 17.1863 16.2774L24.4504 16.2441L24.4113 2.25782L7.662 2.29707V3.79964ZM30.3678 13.8409L30.3491 13.9391L30.3678 13.8409C31.6128 14.0781 32.5922 15.0374 32.8604 16.2721H33.7667V11.2573H25.7897V16.2721H26.696C27.0576 14.6044 28.6835 13.52 30.3678 13.8409ZM31.5687 9.92236L29.8705 6.97305H25.7897V9.92236H31.5687ZM29.7753 18.7688C30.784 18.7688 31.602 17.9499 31.602 16.9395C31.602 15.9291 30.784 15.1102 29.7753 15.1102C28.7666 15.1102 27.9487 15.9291 27.9487 16.9395C27.9487 17.9499 28.7666 18.7688 29.7753 18.7688ZM14.1013 18.7688C15.11 18.7688 15.928 17.9499 15.928 16.9395C15.928 15.9291 15.11 15.1102 14.1013 15.1102C13.0926 15.1102 12.2747 15.9291 12.2747 16.9395C12.2747 17.9499 13.0926 18.7688 14.1013 18.7688Z" fill="#3675B4" stroke="#3675B4" stroke-width="0.2"/>
</svg>
