<svg width="26" height="22" viewBox="0 0 26 22" fill="none" xmlns="http://www.w3.org/2000/svg">
<path d="M2.17059 15.2375H4.6664V18.8222C4.6664 20.1019 5.70729 21.1428 6.98699 21.1428H23.8294C25.1091 21.1428 26.15 20.1019 26.15 18.8222V9.08285C26.15 7.80315 25.1091 6.76226 23.8294 6.76226H21.3337V3.1777C21.3337 1.898 20.2928 0.857111 19.0131 0.857111H2.17059H2.17059C0.890888 0.857165 -0.15 1.89805 -0.15 3.17776V12.9169C-0.15 14.1966 0.890888 15.2375 2.17059 15.2375ZM24.6096 18.8222V18.8313C24.6048 19.2572 24.2565 19.6025 23.8294 19.6025H6.98699C6.55689 19.6025 6.20673 19.2523 6.20673 18.8222V9.08285C6.20673 8.67649 6.51972 8.34175 6.91742 8.30645H20.5634C20.5894 8.30645 20.6145 8.305 20.6388 8.30259H23.8294C24.2595 8.30259 24.6096 8.65275 24.6096 9.08285V18.8222ZM1.39033 3.17776C1.39033 2.74766 1.7405 2.39749 2.17059 2.39749H19.0131C19.4432 2.39749 19.7934 2.74766 19.7934 3.17776V3.89363H1.39033V3.17776ZM4.6664 9.08285V13.6971H2.17059C1.7405 13.6971 1.39033 13.3469 1.39033 12.9168V8.30645H4.80028C4.71368 8.54937 4.6664 8.81079 4.6664 9.08285ZM1.39033 6.76612V5.43401H19.7934V6.76226H6.98699C6.94308 6.76226 6.90005 6.76375 6.8579 6.76612H1.39033Z" fill="#3675B4" stroke="#3675B4" stroke-width="0.3"/>
</svg>
