<?xml version="1.0" encoding="UTF-8" standalone="no"?>
<!DOCTYPE svg PUBLIC "-//W3C//DTD SVG 1.1//EN" "http://www.w3.org/Graphics/SVG/1.1/DTD/svg11.dtd">
<svg version="1.1" xmlns="http://www.w3.org/2000/svg" xmlns:xlink="http://www.w3.org/1999/xlink" preserveAspectRatio="xMidYMid meet" viewBox="426.22376108033507 118.85465116279077 27.03000000000003 24.419999999999945" width="23.03" height="20.42"><defs><path d="M449.17 139.19C449.17 138.59 448.7 138.11 448.12 138.11C447.54 138.11 447.07 138.59 447.07 139.19C447.07 139.79 447.54 140.27 448.12 140.27C448.7 140.27 449.17 139.79 449.17 139.19Z" id="f4rbEJxWEB"></path><path d="M435.98 139.19C435.98 138.59 435.51 138.11 434.94 138.11C434.36 138.11 433.89 138.59 433.89 139.19C433.89 139.79 434.36 140.27 434.94 140.27C435.51 140.27 435.98 139.79 435.98 139.19Z" id="b19pjt3CAO"></path><path d="M427.22 119.85L431.41 119.85C433.09 128.56 434.03 133.4 434.22 134.36C434.31 134.86 434.57 135.31 434.96 135.63C435.34 135.95 435.82 136.12 436.31 136.11C437.33 136.11 445.47 136.11 446.49 136.11C446.98 136.12 447.46 135.95 447.84 135.63C448.22 135.31 448.48 134.86 448.58 134.36C448.69 133.76 449.25 130.73 450.25 125.27L432.46 125.27" id="bt2be4b70"></path></defs><g><g><use xlink:href="#f4rbEJxWEB" opacity="1" fill="#000000" fill-opacity="0"></use><g><use xlink:href="#f4rbEJxWEB" opacity="1" fill-opacity="0" stroke="#bdbdbd" stroke-width="2" stroke-opacity="1"></use></g></g><g><use xlink:href="#b19pjt3CAO" opacity="1" fill="#000000" fill-opacity="0"></use><g><use xlink:href="#b19pjt3CAO" opacity="1" fill-opacity="0" stroke="#bdbdbd" stroke-width="2" stroke-opacity="1"></use></g></g><g><use xlink:href="#bt2be4b70" opacity="1" fill="#000000" fill-opacity="0"></use><g><use xlink:href="#bt2be4b70" opacity="1" fill-opacity="0" stroke="#bdbdbd" stroke-width="1.8" stroke-opacity="1"></use></g></g></g></svg>