<svg width="22" height="22" viewBox="0 0 22 22" fill="none" xmlns="http://www.w3.org/2000/svg">
<path d="M3.2218 14.2218C4.4199 13.0237 5.84594 12.1368 7.40184 11.5999C5.73543 10.4522 4.64062 8.53136 4.64062 6.35938C4.64062 2.85282 7.49345 0 11 0C14.5066 0 17.3594 2.85282 17.3594 6.35938C17.3594 8.53136 16.2646 10.4522 14.5981 11.5999C16.154 12.1368 17.5801 13.0237 18.7782 14.2218C20.8558 16.2995 22 19.0618 22 22H20.2812C20.2812 16.8823 16.1177 12.7188 11 12.7188C5.88229 12.7188 1.71875 16.8823 1.71875 22H0C0 19.0618 1.14421 16.2995 3.2218 14.2218ZM11 11C13.5588 11 15.6406 8.91825 15.6406 6.35938C15.6406 3.8005 13.5588 1.71875 11 1.71875C8.44117 1.71875 6.35938 3.8005 6.35938 6.35938C6.35938 8.91825 8.44117 11 11 11Z" fill="white"/>
</svg>
